<svg width="46" height="45" viewBox="0 0 46 45" fill="none" xmlns="http://www.w3.org/2000/svg">
<path d="M11.75 2.8125H5.31201L12.7388 10.2612L10.7612 12.2388L3.3125 4.81201V11.25H0.5V0H11.75V2.8125ZM34.25 0H45.5V11.25H42.6875V4.81201L35.2388 12.2388L33.2612 10.2612L40.688 2.8125H34.25V0ZM10.7612 32.7612L12.7388 34.7388L5.31201 42.1875H11.75V45H0.5V33.75H3.3125V40.188L10.7612 32.7612ZM42.6875 40.188V33.75H45.5V45H34.25V42.1875H40.688L33.2612 34.7388L35.2388 32.7612L42.6875 40.188ZM14.5625 30.9375V14.0625H31.4375V30.9375H14.5625ZM17.375 16.875V28.125H28.625V16.875H17.375Z" fill="#DE4A24"/>
</svg>
