<svg width="49" height="44" viewBox="0 0 49 44" fill="none" xmlns="http://www.w3.org/2000/svg">
<path d="M10.1808 27.3242L6.09154 23.2281L2 27.3242M38.8192 16.7573L42.9085 20.8558L47 16.7573" stroke="#DE4A24" stroke-width="3.46154" stroke-linecap="round" stroke-linejoin="round"/>
<path d="M42.9085 20.8559C42.9085 15.9636 40.97 11.2767 37.5177 7.81749C35.8094 6.10578 33.7803 4.74776 31.5466 3.82116C29.3129 2.89456 26.9183 2.41757 24.5 2.41749C22.151 2.41562 19.8237 2.86776 17.6462 3.74903C15.2154 4.72364 13.0204 6.20551 11.2078 8.09574C9.39517 9.98597 8.00655 12.2411 7.13463 14.7106M6.09155 23.2259C6.0951 27.5057 7.58545 31.6513 10.3077 34.9536C13.027 38.2521 16.8104 40.5003 21.0075 41.3118C25.2046 42.1234 29.5533 41.4476 33.3062 39.4006C37.0589 37.3494 39.9831 34.059 41.5792 30.0913" stroke="#DE4A24" stroke-width="3.46154" stroke-linecap="round" stroke-linejoin="round"/>
<path d="M18.9154 26.5675C19.0355 27.9375 19.6873 29.206 20.731 30.1014C21.7748 30.9968 23.1277 31.448 24.5 31.3583C29.0046 31.3583 30.0846 28.7667 30.0846 26.5675C30.0846 24.3682 28.2223 22.0375 24.5 22.0375C20.7777 22.0375 18.9154 20.5652 18.9154 17.5652C18.9671 16.5256 19.3342 15.5265 19.9678 14.7007C20.6014 13.875 21.4716 13.2618 22.4623 12.9429C23.12 12.7306 23.8123 12.6544 24.5 12.719C25.8741 12.6593 27.2188 13.1284 28.2575 14.0298C29.2963 14.9312 29.9502 16.1964 30.0846 17.5652M24.5 34.1506V31.7252M24.5 9.91748V12.7098" stroke="#DE4A24" stroke-width="3.46154" stroke-linecap="round" stroke-linejoin="round"/>
</svg>
