<svg width="49" height="49" viewBox="0 0 49 49" fill="none" xmlns="http://www.w3.org/2000/svg">
<path d="M13.4221 29.7441C19.3045 29.7441 24.0732 24.9754 24.0732 19.093C24.0732 13.2105 19.3045 8.44189 13.4221 8.44189C7.53965 8.44189 2.771 13.2105 2.771 19.093C2.771 24.9754 7.53965 29.7441 13.4221 29.7441Z" fill="#DE4A24"/>
<path fill-rule="evenodd" clip-rule="evenodd" d="M29.0366 45.223C29.0925 45.5026 29.3295 45.7209 29.6171 45.7209H34.3702C35.9731 45.7209 37.1767 44.3123 36.6415 42.8025C35.5231 39.6498 32.847 35.0698 26.736 35.0698C26.4023 35.0698 26.0783 35.0831 25.7641 35.1098C24.7629 35.195 24.5072 36.4252 25.1783 37.1707C27.5881 39.8468 28.5999 43.0368 29.0366 45.223ZM25.4792 42.6135C26.1262 44.1659 24.8507 45.7209 23.1679 45.7209H19.1018C17.4988 45.7209 16.2953 44.3123 16.8305 42.8025C17.3364 41.3753 18.1619 39.6578 19.4799 38.2012C19.8344 37.8088 20.3301 37.573 20.8583 37.5455C21.3864 37.5181 21.9039 37.7012 22.2971 38.0548C23.8203 39.4022 24.8215 41.0424 25.4792 42.6135Z" fill="#DE4A24"/>
<path d="M13.4221 35.0698C22.9335 35.0698 25.6496 41.8626 26.4244 45.7449C26.7147 47.1854 25.5457 48.3837 24.0732 48.3837H2.77102C1.30117 48.3837 0.129555 47.1854 0.419797 45.7449C1.19466 41.8599 3.91069 35.0698 13.4221 35.0698Z" fill="#DE4A24"/>
<path fill-rule="evenodd" clip-rule="evenodd" d="M22.6939 28.6471C23.9727 27.4062 24.9894 25.9211 25.6838 24.28C26.3781 22.6389 26.7359 20.8751 26.736 19.0931C26.736 17.2292 26.3525 15.4504 25.6602 13.8395C26.0117 13.7915 26.3703 13.7676 26.736 13.7676C27.9635 13.7679 29.1744 14.051 30.2747 14.595C31.3751 15.1391 32.3352 15.9294 33.0807 16.9046C33.8261 17.8798 34.3368 19.0137 34.5731 20.2182C34.8094 21.4227 34.7649 22.6655 34.4431 23.8501C34.1213 25.0346 33.5309 26.1291 32.7176 27.0485C31.9044 27.9679 30.8902 28.6875 29.7537 29.1515C28.6173 29.6155 27.3893 29.8114 26.1649 29.7239C24.9405 29.6364 23.7528 29.268 22.6939 28.6471ZM20.6436 26.9217C21.7248 25.9243 22.5878 24.7139 23.1781 23.3665C23.7683 22.0191 24.0731 20.5641 24.0732 19.0931C24.0732 17.5034 23.7271 15.9963 23.1013 14.641C22.0286 15.189 21.0937 15.9726 20.3667 16.933C19.6396 17.8934 19.1391 19.0058 18.9028 20.187C18.6664 21.3682 18.7002 22.5875 19.0016 23.7538C19.3031 24.92 19.8644 26.003 20.6436 26.9217Z" fill="#DE4A24"/>
<path d="M40.0498 3.11621V13.7673M45.3753 8.44175H34.7242" stroke="#DE4A24" stroke-width="5.32554" stroke-linecap="round"/>
</svg>
