<svg width="18" height="19" viewBox="0 0 18 19" fill="none" xmlns="http://www.w3.org/2000/svg">
<path d="M5.34913 0.628906H12.8327C15.6836 0.628906 18 2.94526 18 5.79615V13.2797C18 14.6502 17.4556 15.9645 16.4865 16.9335C15.5175 17.9026 14.2032 18.447 12.8327 18.447H5.34913C2.49823 18.447 0.181885 16.1306 0.181885 13.2797V5.79615C0.181885 4.42571 0.726289 3.1114 1.69533 2.14236C2.66438 1.17331 3.97869 0.628906 5.34913 0.628906ZM5.17095 2.41071C4.32033 2.41071 3.50455 2.74862 2.90308 3.3501C2.3016 3.95157 1.96369 4.76735 1.96369 5.61797V13.4579C1.96369 15.2308 3.39805 16.6652 5.17095 16.6652H13.0109C13.8615 16.6652 14.6773 16.3273 15.2788 15.7258C15.8802 15.1243 16.2182 14.3085 16.2182 13.4579V5.61797C16.2182 3.84507 14.7838 2.41071 13.0109 2.41071H5.17095ZM13.7682 3.74707C14.0635 3.74707 14.3468 3.8644 14.5556 4.07324C14.7645 4.28209 14.8818 4.56535 14.8818 4.8607C14.8818 5.15605 14.7645 5.43931 14.5556 5.64815C14.3468 5.857 14.0635 5.97433 13.7682 5.97433C13.4728 5.97433 13.1896 5.857 12.9807 5.64815C12.7719 5.43931 12.6545 5.15605 12.6545 4.8607C12.6545 4.56535 12.7719 4.28209 12.9807 4.07324C13.1896 3.8644 13.4728 3.74707 13.7682 3.74707ZM9.09092 5.08343C10.2723 5.08343 11.4054 5.55274 12.2407 6.38812C13.0761 7.22351 13.5454 8.35653 13.5454 9.53794C13.5454 10.7194 13.0761 11.8524 12.2407 12.6878C11.4054 13.5231 10.2723 13.9925 9.09092 13.9925C7.90951 13.9925 6.77649 13.5231 5.9411 12.6878C5.10572 11.8524 4.6364 10.7194 4.6364 9.53794C4.6364 8.35653 5.10572 7.22351 5.9411 6.38812C6.77649 5.55274 7.90951 5.08343 9.09092 5.08343ZM9.09092 6.86523C8.38208 6.86523 7.70226 7.14682 7.20103 7.64805C6.6998 8.14928 6.41821 8.8291 6.41821 9.53794C6.41821 10.2468 6.6998 10.9266 7.20103 11.4278C7.70226 11.9291 8.38208 12.2107 9.09092 12.2107C9.79977 12.2107 10.4796 11.9291 10.9808 11.4278C11.482 10.9266 11.7636 10.2468 11.7636 9.53794C11.7636 8.8291 11.482 8.14928 10.9808 7.64805C10.4796 7.14682 9.79977 6.86523 9.09092 6.86523Z" fill="#FBFCF8"/>
</svg>
