<svg xmlns="http://www.w3.org/2000/svg" viewBox="0 0 349.9 157.52"><defs><style>.cls-1{fill:#212121;}</style></defs><g id="Layer_2" data-name="Layer 2"><g id="Layer_1-2" data-name="Layer 1"><path class="cls-1" d="M233,39.87,255.4,35,233,30.13a9.66,9.66,0,0,1-7.38-7.45L220.75,0l-4.82,22.68a9.65,9.65,0,0,1-7.37,7.45L186.1,35l22.46,4.87a9.65,9.65,0,0,1,7.37,7.45L220.75,70l4.82-22.68A9.66,9.66,0,0,1,233,39.87Z"/><path class="cls-1" d="M18.9.42c17.4,0,28.6,9.9,28.6,25.4,0,13.8-8.1,25-21.7,25a18.37,18.37,0,0,1-10-2.79A5,5,0,0,0,8,52.19V70.42H.5V.42ZM40,25.82c0-12.7-6.8-22.7-21.1-22.7H13a5,5,0,0,0-5,5V25c0,14.4,7.1,21.9,17,21.9C34.5,46.92,40,40.12,40,25.82Z"/><path class="cls-1" d="M52,70.42V.42h7.6v70Z"/><path class="cls-1" d="M114.8.42,94.08,33.16a5,5,0,0,0,0,5.33l20,31.93H106L90.22,45.22a5,5,0,0,0-8.52.09C75.18,56.14,72,62.06,72.8,70.42H62.4L82.54,38.28a5,5,0,0,0,0-5.32L62.1.42h8.1l16.28,26a5,5,0,0,0,8.48,0C101.78,15.39,105,8.82,104.2.42Z"/><path class="cls-1" d="M118.3,70.42V.42h7.6v70Z"/><path class="cls-1" d="M135,70.42V.42h7.6v62a5,5,0,0,0,5.06,5c9-.11,14.91-.82,27.24-5.58v8.6Z"/><path class="cls-1" d="M0,155.92v-70H16c13,0,38.1,0,38.1,35s-25.1,35-38.1,35Zm7.5-8a5,5,0,0,0,5,5h6.8c15.1,0,26.8-4.4,26.8-32s-11.7-32-26.8-32H12.5a5,5,0,0,0-5,5Z"/><path class="cls-1" d="M99.9,94.12c-12.25-4.77-18.78-5.19-27.79-5.21a5,5,0,0,0-5,5v23.21l30.3-1.9v7.3l-30.3-3v28.4a5,5,0,0,0,5,5c9.05,0,15.51-.61,27.77-5.8v8.8H59.5v-70H99.9Z"/><path class="cls-1" d="M103.5,147V131h.1c4.1,14.2,18.5,22.7,29.6,22.7,10.5,0,17.1-4.9,17.1-12.8,0-20.1-45.6-17.5-45.6-40,0-12.1,10.3-16.4,22.5-16.4,9.4,0,19.6,2.6,26.4,6.9v11.1c-5.9-9.6-17.5-14.7-27.6-14.7-9.2,0-15.4,4-15.4,10.8,0,17.8,44.9,15.7,44.9,39.2,0,12.2-8.1,19.7-23.8,19.7C117.6,157.52,109.2,151.92,103.5,147Z"/><path class="cls-1" d="M159.8,155.92v-70h7.6v70Z"/><path class="cls-1" d="M197,119.62h37.2v36.3h-4.7l-.9-22.7c-.8,10.5-5.5,24.3-23,24.3-21,0-32.8-15.5-32.8-37.9,0-21.8,12.7-35.3,33-35.3s27.6,11.5,27.6,18.9c0,5.9-2.5,9.3-6,9.3a6.65,6.65,0,0,1-3.9-1.4,24.09,24.09,0,0,0,2.2-9.2c0-8-6.2-14.2-19.6-14.2-17.5,0-25.1,15-25.1,31.8,0,17.8,9.2,33,24.7,33,13.66,0,19.53-11.06,21.74-22.82a5,5,0,0,0-4.25-5.94L197,120.32Z"/><path class="cls-1" d="M292.5,85.92v70h-8.3l-34-56a2.5,2.5,0,0,0-4.63,1.32c.33,36.91,1.65,42.12,5.74,54.66h-9v-70h7.9l34.43,56.45a2.51,2.51,0,0,0,4.64-1.32c-.21-37.13-1.3-42.67-5.67-55.13Z"/><path class="cls-1" d="M297.9,147V131h.1c4.1,14.2,18.5,22.7,29.6,22.7,10.5,0,17.1-4.9,17.1-12.8,0-20.1-45.6-17.5-45.6-40,0-12.1,10.3-16.4,22.5-16.4,9.4,0,19.6,2.6,26.4,6.9v11.1c-5.9-9.6-17.5-14.7-27.6-14.7-9.2,0-15.4,4-15.4,10.8,0,17.8,44.9,15.7,44.9,39.2,0,12.2-8.1,19.7-23.8,19.7C312,157.52,303.6,151.92,297.9,147Z"/></g></g></svg>